PathFileType	4	(X/Y/Z)	Kaydara	
DataRate	CameraRate	NumFrames	NumMarkers	Units	OrigDataRate	OrigDataStartFrame	OrigNumFrames	
120.00	120.00	4	72	mm	120.00	229	261	
Frame#	Time	Hips			RightUpLeg			RightLeg			RightFoot			RightFoot_End			LeftUpLeg			LeftLeg			LeftFoot			LeftFoot_End			Spine			Spine1			Spine2			Spine3			Neck			Head			Head_End			RightShoulder			RightArm			RightForeArm			RightHand			RightHandThumb1			RightHandThumb2			RightHandThumb3			RightHandThumb3_End			RightInHandIndex			RightHandIndex1			RightHandIndex2			RightHandIndex3			RightHandIndex3_End			RightInHandMiddle			RightHandMiddle1			RightHandMiddle2			RightHandMiddle3			RightHandMiddle3_End			RightInHandRing			RightHandRing1			RightHandRing2			RightHandRing3			RightHandRing3_End			RightInHandPinky			RightHandPinky1			RightHandPinky2			RightHandPinky3			RightHandPinky3_End			LeftShoulder			LeftArm			LeftForeArm			LeftHand			LeftHandThumb1			LeftHandThumb2			LeftHandThumb3			LeftHandThumb3_End			LeftInHandIndex			LeftHandIndex1			LeftHandIndex2			LeftHandIndex3			LeftHandIndex3_End			LeftInHandMiddle			LeftHandMiddle1			LeftHandMiddle2			LeftHandMiddle3			LeftHandMiddle3_End			LeftInHandRing			LeftHandRing1			LeftHandRing2			LeftHandRing3			LeftHandRing3_End			LeftInHandPinky			LeftHandPinky1			LeftHandPinky2			LeftHandPinky3			LeftHandPinky3_End			
		X1	Y1	Z1	X2	Y2	Z2	X3	Y3	Z3	X4	Y4	Z4	X5	Y5	Z5	X6	Y6	Z6	X7	Y7	Z7	X8	Y8	Z8	X9	Y9	Z9	X10	Y10	Z10	X11	Y11	Z11	X12	Y12	Z12	X13	Y13	Z13	X14	Y14	Z14	X15	Y15	Z15	X16	Y16	Z16	X17	Y17	Z17	X18	Y18	Z18	X19	Y19	Z19	X20	Y20	Z20	X21	Y21	Z21	X22	Y22	Z22	X23	Y23	Z23	X24	Y24	Z24	X25	Y25	Z25	X26	Y26	Z26	X27	Y27	Z27	X28	Y28	Z28	X29	Y29	Z29	X30	Y30	Z30	X31	Y31	Z31	X32	Y32	Z32	X33	Y33	Z33	X34	Y34	Z34	X35	Y35	Z35	X36	Y36	Z36	X37	Y37	Z37	X38	Y38	Z38	X39	Y39	Z39	X40	Y40	Z40	X41	Y41	Z41	X42	Y42	Z42	X43	Y43	Z43	X44	Y44	Z44	X45	Y45	Z45	X46	Y46	Z46	X47	Y47	Z47	X48	Y48	Z48	X49	Y49	Z49	X50	Y50	Z50	X51	Y51	Z51	X52	Y52	Z52	X53	Y53	Z53	X54	Y54	Z54	X55	Y55	Z55	X56	Y56	Z56	X57	Y57	Z57	X58	Y58	Z58	X59	Y59	Z59	X60	Y60	Z60	X61	Y61	Z61	X62	Y62	Z62	X63	Y63	Z63	X64	Y64	Z64	X65	Y65	Z65	X66	Y66	Z66	X67	Y67	Z67	X68	Y68	Z68	X69	Y69	Z69	X70	Y70	Z70	X71	Y71	Z71	X72	Y72	Z72	

229	1.9	6081.203	893.81699	129.612	6042.957445673582	833.4466679979969	62.66084937225647	5997.106762826413	420.7390949477308	36.587053738030114	6138.399802721275	125.38378189044485	-180.8394351075233	6101.567126942714	2.2476636452927057	-43.22183390459269	6129.8919715484035	927.2921611045855	210.29997395646626	6012.670277146017	534.3464090365054	294.52291818848477	5907.53626384624	97.21525678341132	299.463548393369	5764.8532635229685	6.737383405970303	208.30087471169992	6045.855569995946	1017.7782740982612	68.56909891192143	5995.2780269923205	1087.368457190281	23.773520589417586	5937.058377790474	1155.4764913309357	-22.802591931635607	5872.915022560428	1213.1468401998611	-66.76036160646194	5804.0956716896435	1275.058130577845	-112.98335743076493	5742.9757630881795	1333.221895068976	-154.37078363820544	5603.1141992115745	1409.0621704312937	-151.8370173273855	5812.269303628073	1227.2955436216812	-108.20023026582341	5745.077066116478	1122.4551217362857	-108.37982145264132	5769.869279017564	1073.3074979490148	122.61349368480833	5609.070151751313	975.4899115151809	296.4223585958713	5600.809393252746	981.8189271932686	310.3681858084018	5601.153460677931	978.9216609273553	338.48670407449197	5601.137443212631	974.0918540096901	360.0904609613567	5600.905405668515	967.6597318817718	379.8303605330964	5598.010258546181	972.3701560914208	318.42429669459216	5585.031424349797	956.949226580648	361.59328148226496	5582.007948267124	945.9434651323986	394.15472338876356	5584.641684620888	942.4379752697614	410.7845656321791	5589.866072766925	941.787245771332	422.11159688761575	5598.052322662645	965.2452605702177	322.5411111182177	5585.414198406964	946.3503660826875	366.87290667188233	5582.1701357754555	933.4504552318489	402.81024235595316	5585.3741223298475	928.7939271123906	423.0685072502371	5591.103428245498	927.8741952498483	435.55711106910945	5598.347977177276	960.5863716338346	324.34425389141614	5587.087396562687	939.5539072395879	365.62859133016633	5584.336874851308	927.4301666293622	397.2971932862048	5587.468279843187	922.4711805108584	417.0213584424814	5592.874660900668	921.384919920432	428.85072857156615	5599.5788696806185	955.8105592450083	325.2016071165821	5589.786390912417	933.5078233742227	363.5971654019811	5587.753610616528	922.5183267888618	389.3151926109306	5590.119778026125	918.2814426522933	403.8757332844907	5594.956207844901	916.9625013639145	414.4545696221154	5841.231154786831	1281.855314618046	-85.36709821604026	5901.398162483772	1374.4482477263668	-36.08154055268391	5854.4985283575825	1175.5508735629428	123.82391642656704	5729.373950853422	1011.1303099555886	244.01300929898355	5709.732651597062	1016.6464178822522	241.52118675313488	5689.458284597071	1008.1181253105922	234.82200578509895	5675.978628509259	999.241238824946	232.81966259018998	5665.288223074219	989.3277692343457	233.42849833952636	5710.158408352053	1007.1066542071469	252.18089110400288	5683.441409528071	987.9587519202975	268.7271597604265	5665.192485436063	972.0414580414715	273.0717794643126	5655.587955949531	964.6016910980734	268.3840669495692	5648.812531432157	960.1004539929704	259.52010020360433	5712.843740332357	999.6596083259517	258.5070342187647	5688.237180026954	976.9559484997028	278.06962609880037	5668.765388849192	958.6632646495079	283.58256610515866	5657.389706330117	949.2441898395796	278.2974976160975	5650.079143160197	944.1035288344785	268.778812842726	5715.418075548653	994.8902020313021	262.64772505768065	5695.586869742863	970.4126739345127	284.04770015074763	5679.105183668172	953.5602801043922	289.61009244494	5668.3926559784695	943.9924149307001	284.9143751481877	5661.642199860969	938.9302956461532	276.1549742413625	5719.195587556453	989.9218857642235	266.20414170424533	5703.31120107072	964.413207081026	288.34368425468415	5690.964245967822	949.6079127012857	293.88529385742027	5683.562129988374	941.9951267483407	290.98625474113555	5677.819228004752	937.1460722548234	283.5295899464778
230	1.908	6081.203	893.81699	129.612	6041.6370099834985	833.070430283133	62.92602666008482	5997.273012221789	420.14963230536443	36.660008534921595	6138.747631911952	125.77664632191076	-182.77446801764336	6102.871380343513	1.9416068278748604	-45.32234019646946	6131.200331536731	927.6524549386882	210.0160027562909	6013.473030804866	534.7347358245145	293.82453970922654	5907.95991821281	97.62345997282162	298.0206412966484	5765.47761013293	6.669765428558141	206.9227592416028	6045.9994186849635	1017.8091367011394	68.5131996136375	5995.431770950219	1087.5000307627065	23.856968728142157	5937.206781229478	1155.7359273350276	-22.531801543722466	5873.027067195564	1213.5670906438918	-66.2351018726551	5804.170599355233	1275.6321566063432	-112.20240038843534	5743.072450720693	1333.9856166325796	-153.3746499497891	5603.218995043042	1409.8413742429057	-150.49035787243366	5811.918368860817	1227.597475815774	-107.19591152152033	5743.089724800146	1122.2001850071772	-105.59075390994305	5769.6762299125185	1076.6799475304892	127.7345756959914	5607.1095485433125	981.9303697461667	305.3004282881311	5598.980107328815	988.6159046627643	319.79481088524295	5599.70410476412	985.8534123579498	348.50165718015444	5599.920371815414	981.1173053847072	370.51628518872025	5599.854348961186	974.7631626493459	390.5997021670835	5596.0425497708675	979.228471289929	327.91176939894603	5583.083303370911	964.3191419413943	371.98885063851674	5580.258747632679	953.5134860423648	405.14825492230466	5583.142648576841	950.0072476226575	422.0597871382095	5588.6594233417	949.2714780600015	433.55922269649176	5596.004891500269	972.0779318316957	331.9985150694286	5583.342697881069	953.668210257969	377.19978611184786	5580.305345483833	940.9814166135784	413.7826621617218	5583.8061795262465	936.3214714922144	434.3774376081284	5589.852994859239	935.3074682119441	447.0530601788593	5596.241633647876	967.3895541387525	333.7577744691452	5584.9022309173315	946.7712300093467	375.78480193558755	5582.321359629892	934.8271063376742	408.0075739142774	5585.733511612463	929.8615648719435	428.05182376477666	5591.435784576745	928.6851207660729	440.0549030011761	5597.420512555968	962.5516671642777	334.5340396682325	5587.516670392943	940.5963253111422	373.56288126565494	5585.603688095912	929.7392664523577	399.7081864215466	5588.166868822335	925.4920898594016	414.4942257434137	5593.260942057048	924.090088995359	425.2223519414941	5841.7688280365155	1282.6215829663868	-84.96472346254885	5903.444242498633	1376.6885959674164	-37.12074291067366	5855.831891061819	1178.8791856840637	126.8741205494909	5727.9200519444685	1016.6783820755031	250.9251024813334	5708.045729439665	1022.6124321270574	248.81404888838728	5687.1176316184865	1014.3909159668458	242.33440197212934	5673.166513637399	1005.7284114420161	240.49963793881466	5662.069208966767	995.9942983043491	241.26074911921177	5708.425070844142	1013.1329758761885	259.5901329756693	5681.07775159183	994.6351476250752	276.82611435007595	5662.21364708185	979.0671540420424	281.49705940397223	5652.1918672564225	971.7369136941318	276.86239595941464	5645.047616162923	967.2537297112071	267.9412746820359	5711.079878892277	1005.6604241441852	265.92493706802975	5685.842062899828	983.5770601771576	286.1649825960517	5665.696784110955	965.6599296137048	292.0327221604435	5653.816647085545	956.3703056783241	286.8110377199928	5646.102006582879	951.248090749839	277.2295151313421	5713.650294890858	1000.8575900741785	270.05593997165545	5693.254523734504	976.9104082787356	292.05988611594614	5676.184548659449	960.3786308878023	297.92912079635016	5664.984757525958	950.9320637513523	293.29326634947256	5657.854046076694	945.8855977997274	284.4741771548299	5717.429252200906	995.8226099190036	273.5670810429291	5701.032975850392	970.7634363505254	296.23891052154477	5688.215402507576	956.2020784318078	302.0198332830474	5680.458098033054	948.6715754141084	299.161364955452	5674.378480232035	943.8328233761565	291.6500458133746
231	1.917	6081.203	893.81699	129.612	6040.367869868767	832.7208800382987	63.20425820441343	5997.463281602082	419.59415690978517	36.72794642404393	6139.066967579416	126.16418959157984	-184.63013453429912	6104.11433482498	1.650655587613274	-47.345924267634985	6132.458587338541	927.9863549019691	209.71873686732295	6014.235238460827	535.1000628406663	293.13543822669624	5908.341869261088	98.02351027862679	296.64907275062086	5766.06189493147	6.61074183566839	205.60432729986886	6046.1318827514815	1017.8389501906313	68.46224739371424	5995.571148722014	1087.6278453435245	23.944974359025196	5937.338654182757	1155.9881716633276	-22.257995035011746	5873.122376596083	1213.9760676324845	-65.71043080415811	5804.228016691952	1276.190971970274	-111.42494480647137	5743.146206902254	1334.726881926483	-152.38133940504216	5603.302941162969	1410.6014417126464	-149.1506208869357	5811.566938451513	1227.9028985639336	-106.19606661980275	5741.172202434168	1122.014788711031	-102.83631192043352	5769.594753183645	1080.0534665460298	132.66549064307804	5605.409288016234	988.389011358312	313.86127948894716	5597.426701007191	995.4339778839162	328.8825152351907	5598.529150656258	992.8056919857838	358.1484923797534	5598.97629678805	988.1630743693456	380.5537742635465	5599.074795061606	981.8868934362291	400.96395335943146	5594.3526901178075	986.1092876682301	337.05915822913335	5581.430191885813	971.7167793692026	382.0080293629734	5578.8063871227005	961.1123181766402	415.7379222986479	5581.935015592793	957.6040563431629	432.91557517586784	5587.7352415638	956.7808748469656	444.57554760363155	5594.233208109853	978.9333038696079	341.11730848714035	5581.562549098071	961.0139561958459	387.1534402576233	5578.733558960253	948.5414744685764	424.3521867862403	5582.524515027344	943.8765772590006	445.264837465378	5588.878982191169	942.7657087523139	458.11456585137	5594.4092190041765	974.2154732871079	342.83466786728445	5583.0037026887985	954.0160638272458	385.57513198514147	5580.593542799728	942.2525962628508	418.32658422851375	5584.279753280124	937.2790175948356	438.6731403593286	5590.268554159441	936.0099505920623	450.8378805615353	5595.5326744843	969.315180616191	343.5330571459837	5585.527376216838	947.7115036103407	383.17037308301406	5583.734394137544	936.9876902341185	409.7232506038982	5586.489396410619	932.729128518369	424.7221622821144	5591.832637864429	931.2419004000171	435.5891021025807	5842.272635832204	1283.3557791384512	-84.5639143854074	5905.3973807051825	1378.8147567274834	-38.16426908880615	5857.194042305133	1182.14272681494	129.79269491304638	5726.645159993686	1022.2314392792255	257.60264875869785	5706.560817943064	1028.591065363555	255.86202358949282	5685.007012926067	1020.6873133618147	249.60676865807295	5670.603824387028	1012.2469024562059	247.9427789699412	5659.115679845338	1002.6986257931543	248.8586685385457	5706.895269949556	1019.1726484111203	266.75105071402857	5678.955259760021	1001.3386934229908	284.662851241785	5659.5029034880035	986.1305797707787	289.6601451506979	5649.078203629511	978.9158600311191	285.08509651547405	5641.575360699561	974.4552969269035	276.1166741053244	5709.517941491794	1011.6743195802242	273.09494902608344	5683.6847000345015	990.2245638267615	293.99912841665736	5662.8949842486545	972.6944517061339	300.2218075202651	5650.527521463514	963.5414721263212	295.07148334047315	5642.419924385871	958.4426827217924	285.4379310268547	5712.082337885196	1006.8375071818191	277.2168222173313	5691.1522865968045	983.4321044559881	299.81298718684565	5673.518945403965	967.2308345866028	305.9893252561842	5661.848201633195	957.9124500107985	301.4211011699974	5654.347591065087	952.8862936570415	292.5525210091645	5715.859236305194	1001.7348822363084	280.68454032194	5698.976696454363	977.1350768264222	303.8786716759741	5685.707709602709	962.8253668616946	309.8993854391543	5677.606749748514	955.3820673168696	307.087283605639	5671.199380534171	950.5576842659383	299.53041813007883
232	1.925	6081.203	893.81699	129.612	6039.150646952094	832.3979723955376	63.49495739361999	5997.677055655203	419.07268288189545	36.79107131602015	6139.357896111129	126.54599854220112	-186.40550617028538	6105.29561653122	1.3749311519209222	-49.291310311592945	6133.66612176219	928.2939067201243	209.40876006768454	6014.956869892236	535.44229491856	292.4562956951268	5908.68235084468	98.41514310105774	295.3494064593609	5766.606152516105	6.5603507456294095	204.3461851586751	6046.252949514902	1017.8677553846175	68.41634984403025	5995.696152808375	1087.751882372332	24.037547779724164	5937.453994741699	1156.2331206934361	-21.98129633881822	5873.200953833851	1214.3735456378872	-65.18665252000662	5804.267937721126	1276.734230134424	-110.65148292584462	5743.197049879125	1335.4452038944653	-151.39153085448757	5603.366030567915	1411.3418674792645	-147.81865525648584	5811.2152057761605	1228.2114120797905	-105.2014805374167	5739.325179245615	1121.8976045429265	-100.11894078305237	5769.622100607779	1083.423460708043	137.40432316014756	5603.96538676465	994.856906792038	322.10201042583395	5596.144522400767	1002.2633451625687	337.6281598500817	5597.623274446558	999.7684427296334	367.424103103151	5598.299489006722	995.218968433908	390.1998684777067	5598.5607307411055	989.020655070162	410.9201142328634	5592.936202113708	993.0028115904597	345.86336615842725	5580.067043852039	979.131458834988	391.647613002492	5577.645367879077	968.729006143446	425.9205702193288	5581.012966906581	965.2174965250741	443.3488619123268	5587.087417992112	964.3047225421637	455.1576144725975	5592.732982841221	985.8017454605802	349.89447001272913	5580.069009452298	968.3771958635205	396.73078366847665	5577.449566043019	956.119945020074	434.5157951331187	5581.523545462156	951.4486334136818	455.7277962828549	5588.175495009849	950.2385209763927	468.73884111632333	5592.846591679507	981.0546318528734	351.5719678087507	5581.387395486585	961.2783217605612	394.9966022964605	5579.148628293434	949.6963356723601	428.25131196308735	5583.101863577004	944.7133222416242	448.882508355087	5589.3675421599755	943.3494018921648	461.19698029390645	5593.911394132645	976.0918090141848	352.1957687328919	5583.814408858514	954.8436426193664	392.41678091364895	5582.141369820799	944.253755280557	419.3575957682934	5585.082771670678	939.9827985452796	434.5568436995302	5590.666465029153	938.4083728233344	445.5522309645285	5842.742387323543	1284.057678679284	-84.16474321651489	5907.256789033834	1380.826480414271	-39.21013601795049	5858.582320298432	1185.3385794003404	132.57912212951607	5725.547358531661	1027.7823068805085	264.04270695830843	5705.275711116358	1034.5741635330794	262.6618558962646	5683.124533454277	1026.9984514212704	256.63539079189025	5668.288928690283	1018.7873821396324	255.14505183811025	5656.426262645121	1009.431062986102	256.21795836640496	5705.566889541676	1025.2175095664568	273.66037619437276	5677.071902356534	1008.0599833225276	292.2335659730118	5657.058549638799	993.2216439253594	297.5568064214908	5646.24556577739	986.1281819544283	293.04768504409196	5638.394688031862	981.6947090230284	284.04161296912645	5708.155948187119	1017.6932718068069	280.0138225228226	5681.763267442673	996.8892988687912	301.56830399575557	5660.358539754925	979.7569451920361	308.1456023510507	5647.521257453856	970.7475044380245	303.07431116297664	5639.032181399436	965.6770175545288	293.399317289192	5710.7123162464795	1012.8220588973859	284.1271528706759	5689.278482357266	989.9689543289038	307.3033517373152	5671.107042537337	974.1074759852049	313.7866583116728	5658.982030732045	964.9238833347541	309.2935421721867	5651.122217360519	959.9226027988437	300.38546291156837	5714.483773681954	1007.6510069529344	287.5533457233461	5697.140858675649	983.5197105508365	311.2594261316671	5683.439966495522	969.468916861276	317.5201018571948	5675.007170328151	962.117561403211	314.75995565062686	5668.281323035906	957.3115460638235	307.1664726753661
